<svg width="26" height="26" viewBox="0 0 26 26" fill="none" xmlns="http://www.w3.org/2000/svg">
<g clip-path="url(#clip0_85_384)">
<path d="M2.17699 9.40503C1.86675 9.40467 1.56896 9.54388 1.3485 9.79233C1.12805 10.0408 1.00281 10.3783 1.00007 10.7314C0.998813 10.8538 1.01439 10.9757 1.04622 11.0926L4.02891 23.063C4.16715 23.6222 4.46259 24.1143 4.87 24.4642C5.2774 24.814 5.77432 25.0023 6.28467 25.0001H19.7154C20.2267 25.0006 20.7244 24.8119 21.1333 24.4626C21.5423 24.1132 21.8404 23.622 21.9827 23.063L24.9654 11.0926L25 10.7314C24.9973 10.3783 24.872 10.0408 24.6516 9.79233C24.4311 9.54388 24.1333 9.40467 23.8231 9.40503H2.17699ZM13.33 19.9158C12.8505 19.913 12.3825 19.7487 11.9849 19.4435C11.5874 19.1383 11.2782 18.7059 11.0963 18.2009C10.9145 17.6959 10.8681 17.1409 10.9632 16.606C11.0582 16.071 11.2903 15.5801 11.6302 15.1951C11.9701 14.8102 12.4026 14.5484 12.8731 14.4429C13.3436 14.3375 13.8309 14.393 14.2737 14.6025C14.7165 14.8119 15.0949 15.166 15.361 15.62C15.6272 16.074 15.7693 16.6075 15.7693 17.1533C15.7662 17.8873 15.5079 18.59 15.0507 19.1077C14.5936 19.6254 13.9749 19.9159 13.33 19.9158Z" stroke="#FECB01" stroke-width="2" stroke-linejoin="round"/>
<path d="M7.46167 9.40492L13.0001 1L18.5386 9.40492" stroke="#FECB01" stroke-width="2" stroke-linejoin="round"/>
</g>
<defs>
<clipPath id="clip0_85_384">
<rect width="26" height="26" fill="white"/>
</clipPath>
</defs>
</svg>
