<svg width="16" height="17" viewBox="0 0 16 17" fill="none" xmlns="http://www.w3.org/2000/svg">
<path d="M0.036079 1.07909L0.135829 0L1.13332 0.342569C2.84285 0.954522 4.66839 1.14231 6.4616 0.89068C8.34591 0.5894 10.2746 0.857123 12.0143 1.66146C12.9366 2.06607 13.746 2.70194 14.3688 3.51117C14.9917 4.3204 15.4081 5.27729 15.5804 6.29471C15.8036 7.60905 15.6919 8.96061 15.2562 10.2171C14.9756 9.56461 14.6477 8.93478 14.2753 8.333C13.4306 7.05251 12.2601 6.03622 10.8921 5.39547C9.57424 4.77552 8.13374 4.48222 6.68604 4.53904C8.06422 4.75614 9.38342 5.26656 10.5596 6.03778C11.127 6.40506 11.6465 6.84539 12.1057 7.34811C12.5449 7.85059 12.9322 8.3988 13.2612 8.98388C13.8792 10.2069 14.3189 11.517 14.5662 12.872C14.8328 14.2315 14.9775 15.6133 14.9985 17H13.336C13.2579 15.7563 13.094 14.52 12.8456 13.3003C11.6923 13.9419 10.3989 14.2691 9.08833 14.2509C7.86601 14.25 6.65626 13.9967 5.53061 13.5058C-0.795165 10.7224 0.036079 1.46448 0.036079 1.07909Z" fill="#58A65C"/>
</svg>
