<svg width="137" height="22" viewBox="0 0 137 22" fill="none" xmlns="http://www.w3.org/2000/svg">
<path d="M0.036018 5.07909L0.135768 4L1.13326 4.34257C2.84279 4.95452 4.66832 5.14231 6.46154 4.89068C8.34585 4.5894 10.2745 4.85712 12.0143 5.66146C12.9365 6.06607 13.7459 6.70194 14.3688 7.51117C14.9916 8.3204 15.4081 9.27729 15.5803 10.2947C15.8036 11.6091 15.6919 12.9606 15.2561 14.2171C14.9755 13.5646 14.6476 12.9348 14.2752 12.333C13.4305 11.0525 12.2601 10.0362 10.8921 9.39547C9.57418 8.77552 8.13368 8.48222 6.68597 8.53904C8.06416 8.75614 9.38336 9.26656 10.5596 10.0378C11.1269 10.4051 11.6465 10.8454 12.1057 11.3481C12.5449 11.8506 12.9321 12.3988 13.2611 12.9839C13.8791 14.2069 14.3189 15.517 14.5662 16.872C14.8327 18.2315 14.9774 19.6133 14.9984 21H13.3359C13.2578 19.7563 13.0939 18.52 12.8455 17.3003C11.6922 17.9419 10.3989 18.2691 9.08827 18.2509C7.86595 18.25 6.65619 17.9967 5.53054 17.5058C-0.795226 14.7224 0.036018 5.46448 0.036018 5.07909Z" fill="#FECB01"/>
<path d="M24.538 21.26C25.63 21.26 26.618 20.792 27.45 20.012C27.45 20.688 27.528 21 28.256 21H30.908C31.402 21 31.636 20.792 31.636 20.402C31.636 19.804 30.908 19.206 30.908 17.074V2.618C30.908 1.76 30.57 1.5 30.154 1.5C29.816 1.5 29.426 1.682 29.192 1.89L27.45 3.32C26.462 4.126 26.644 4.62 27.45 5.452V8.962C26.618 8.208 25.63 7.74 24.538 7.74C21.678 7.74 19.39 10.912 19.39 14.474C19.39 18.062 21.678 21.26 24.538 21.26ZM23.212 14.474C23.212 12.186 23.732 9.196 25.578 9.196C26.28 9.196 26.93 9.638 27.45 10.288V18.686C26.93 19.362 26.28 19.804 25.578 19.804C23.732 19.804 23.212 16.788 23.212 14.474ZM32.4154 17.542C32.4154 19.388 33.8194 21.286 36.0554 21.286C37.0174 21.286 38.1354 20.87 38.8894 20.298C39.0194 20.792 39.3314 21 39.6434 21H42.9194C43.3354 21 43.6734 20.792 43.6734 20.402C43.6734 19.7 43.0234 19.518 42.8674 18.738C42.6594 17.672 42.5034 12.082 42.2694 10.782C41.9314 8.858 40.7874 7.74 37.8494 7.74C34.7294 7.74 32.5454 8.754 32.5454 10.496C32.5454 11.146 32.9354 11.9 33.9494 11.9C35.8474 11.9 36.7054 8.598 37.8494 8.598C38.7334 8.598 39.2274 9.872 39.3574 11.536C38.9414 11.822 38.3954 12.16 37.8754 12.394C35.4314 13.486 32.4154 14.188 32.4154 17.542ZM38.2134 13.564C38.7074 13.226 39.1234 12.94 39.4094 12.732V13.174C39.3054 15.774 38.9674 17.646 38.8374 19.128C38.4474 19.362 38.0574 19.544 37.5894 19.544C36.4194 19.544 36.2374 18.062 36.2374 17.308C36.2374 15.228 37.3294 14.188 38.2134 13.564ZM43.4095 8.598C43.4095 9.196 44.6835 9.872 45.3075 11.926L47.6735 19.7C47.9335 20.532 48.2455 21 48.6875 21H51.2615C51.7815 21 51.9895 20.402 52.1975 19.648L54.2775 11.926C54.8495 9.846 56.5655 9.196 56.5655 8.598C56.5655 8.598 56.5655 8 55.8375 8H53.2375C53.2375 8 52.5095 8 52.5095 8.598C52.5095 9.196 53.9395 9.95 53.3935 11.926L51.2875 19.7L48.9215 11.926C48.2195 9.612 48.6355 9.196 48.6355 8.598C48.6355 8.598 48.6355 8 47.9075 8H44.1375C44.1375 8 43.4095 8 43.4095 8.598ZM57.349 17.542C57.349 19.388 58.753 21.286 60.989 21.286C61.951 21.286 63.069 20.87 63.823 20.298C63.953 20.792 64.265 21 64.577 21H67.853C68.269 21 68.607 20.792 68.607 20.402C68.607 19.7 67.957 19.518 67.801 18.738C67.593 17.672 67.437 12.082 67.203 10.782C66.865 8.858 65.721 7.74 62.783 7.74C59.663 7.74 57.479 8.754 57.479 10.496C57.479 11.146 57.869 11.9 58.883 11.9C60.781 11.9 61.639 8.598 62.783 8.598C63.667 8.598 64.161 9.872 64.291 11.536C63.875 11.822 63.329 12.16 62.809 12.394C60.365 13.486 57.349 14.188 57.349 17.542ZM63.147 13.564C63.641 13.226 64.057 12.94 64.343 12.732V13.174C64.239 15.774 63.901 17.646 63.771 19.128C63.381 19.362 62.991 19.544 62.523 19.544C61.353 19.544 61.171 18.062 61.171 17.308C61.171 15.228 62.263 14.188 63.147 13.564ZM75.5461 21.26C79.5501 21.26 81.7081 18.556 81.7081 14.5C81.7081 10.444 79.5501 7.74 75.5461 7.74C71.5421 7.74 69.3841 10.444 69.3841 14.5C69.3841 18.556 71.5421 21.26 75.5461 21.26ZM73.2061 14.5C73.2061 10.444 74.4541 8.598 75.5461 8.598C76.6381 8.598 77.8861 10.444 77.8861 14.5C77.8861 18.556 76.6381 20.402 75.5461 20.402C74.4541 20.402 73.2061 18.556 73.2061 14.5ZM81.8867 8.858H83.7067V17.074C83.7067 19.206 82.9787 19.804 82.9787 20.402C82.9787 20.402 82.9787 21 83.7067 21H87.1647C87.1647 21 87.8927 21 87.8927 20.402C87.8927 19.804 87.1647 19.206 87.1647 17.074V8.858H88.9847C89.5827 8.858 89.5827 8 88.9847 8H87.1647V6.622C87.1647 3.086 88.2827 2.098 89.5047 2.098C91.1167 2.098 90.6487 5.14 92.5467 5.14C93.5607 5.14 94.1327 4.386 94.1327 3.736C94.1327 1.994 91.8967 1.24 89.5047 1.24C86.2807 1.24 83.7067 3.086 83.7067 6.622V8H81.8867C81.2887 8 81.2887 8.858 81.8867 8.858ZM89.9168 11.952V17.074C89.9168 19.206 89.1888 19.804 89.1888 20.402C89.1888 20.792 89.4228 21 89.9168 21H93.3748C93.3748 21 94.1028 21 94.1028 20.402C94.1028 19.804 93.3748 19.206 93.3748 17.074V10.704C94.2588 9.768 95.2728 9.144 96.0008 9.144C97.1448 9.144 96.9628 11.9 98.8608 11.9C99.8748 11.9 100.447 11.146 100.447 10.496C100.447 8.754 98.2368 7.74 96.6248 7.74C95.3248 7.74 94.2588 8.364 93.3748 9.248V9.118C93.3748 8.26 93.0368 8 92.6208 8C92.2828 8 91.8928 8.182 91.6588 8.39L89.9168 9.82C88.9288 10.626 89.9168 10.782 89.9168 11.952ZM107.386 21.26C109.882 21.26 111.52 19.492 111.858 18.4C112.092 17.646 111.494 17.1 110.87 17.1C110.454 17.1 110.012 17.334 109.804 17.906C109.362 19.102 108.504 20.402 107.386 20.402C106.476 20.402 105.046 18.842 105.046 14.786H107.776C109.986 14.786 112.066 14.318 112.066 11.77C112.066 8.832 109.57 7.74 107.204 7.74C103.382 7.74 101.224 10.21 101.224 14.266C101.224 18.062 103.382 21.26 107.386 21.26ZM107.204 8.598C107.958 8.598 108.244 10.21 108.244 11.666C108.244 12.706 107.958 13.928 106.736 13.928H105.072C105.228 10.418 106.45 8.598 107.204 8.598ZM117.819 21.26C119.743 21.26 123.019 20.376 123.019 17.698C123.019 14.292 116.441 13.278 116.441 10.47C116.441 9.56 117.091 8.598 118.053 8.598C119.925 8.598 119.509 12.212 121.407 12.212C122.421 12.212 122.993 11.458 122.993 10.808C122.993 9.066 121.043 7.74 118.027 7.74C116.103 7.74 112.905 8.754 112.905 11.432C112.905 14.838 119.405 15.722 119.405 18.53C119.405 19.44 118.755 20.402 117.793 20.402C115.921 20.402 116.337 16.788 114.439 16.788C113.425 16.788 112.853 17.542 112.853 18.192C112.853 19.934 114.803 21.26 117.819 21.26ZM124.524 5.452V17.074C124.524 19.206 123.796 19.804 123.796 20.402C123.796 20.792 124.03 21 124.524 21H127.982C127.982 21 128.71 21 128.71 20.402C128.71 19.804 127.982 19.206 127.982 17.074V11.198C128.814 9.976 129.88 9.144 130.712 9.144C132.168 9.144 132.09 10.782 132.012 13.174C131.908 16.086 131.466 18.088 131.414 19.648C131.388 20.61 131.804 21 132.246 21H135.522C135.938 21 136.276 20.792 136.276 20.402C136.276 19.7 135.626 19.518 135.47 18.738C135.262 17.672 135.106 12.082 134.872 10.782C134.534 8.858 133.052 7.74 131.388 7.74C129.958 7.74 128.866 8.572 127.982 9.664V2.618C127.982 1.76 127.644 1.5 127.228 1.5C126.89 1.5 126.5 1.682 126.266 1.89L124.524 3.32C123.536 4.126 124.524 4.282 124.524 5.452Z" fill="#4A6C1C"/>
</svg>
