<svg width="137" height="22" viewBox="0 0 137 22" fill="none" xmlns="http://www.w3.org/2000/svg">
<path d="M0.036079 5.07909L0.135829 4L1.13332 4.34257C2.84285 4.95452 4.66839 5.14231 6.4616 4.89068C8.34591 4.5894 10.2746 4.85712 12.0143 5.66146C12.9366 6.06607 13.746 6.70194 14.3688 7.51117C14.9917 8.3204 15.4081 9.27729 15.5804 10.2947C15.8036 11.6091 15.6919 12.9606 15.2562 14.2171C14.9756 13.5646 14.6477 12.9348 14.2753 12.333C13.4306 11.0525 12.2601 10.0362 10.8921 9.39547C9.57424 8.77552 8.13374 8.48222 6.68604 8.53904C8.06422 8.75614 9.38342 9.26656 10.5596 10.0378C11.127 10.4051 11.6465 10.8454 12.1057 11.3481C12.5449 11.8506 12.9322 12.3988 13.2612 12.9839C13.8792 14.2069 14.3189 15.517 14.5662 16.872C14.8328 18.2315 14.9775 19.6133 14.9985 21H13.336C13.2579 19.7563 13.094 18.52 12.8456 17.3003C11.6923 17.9419 10.3989 18.2691 9.08833 18.2509C7.86601 18.25 6.65626 17.9967 5.53061 17.5058C-0.795165 14.7224 0.036079 5.46448 0.036079 5.07909Z" fill="#58A65C"/>
<path d="M24.538 7.74C25.0927 7.74 25.6127 7.85267 26.098 8.078C26.5833 8.286 27.034 8.58067 27.45 8.962V5.452C27.0513 5.036 26.826 4.68067 26.774 4.386C26.722 4.074 26.9473 3.71867 27.45 3.32L29.192 1.89C29.3133 1.786 29.4607 1.69933 29.634 1.63C29.8073 1.54333 29.9807 1.5 30.154 1.5C30.362 1.5 30.5353 1.578 30.674 1.734C30.83 1.89 30.908 2.18467 30.908 2.618V17.074C30.908 17.6113 30.9427 18.062 31.012 18.426C31.0987 18.7727 31.1853 19.0673 31.272 19.31C31.3587 19.5527 31.4367 19.7607 31.506 19.934C31.5927 20.09 31.636 20.246 31.636 20.402C31.636 20.8007 31.3933 21 30.908 21H28.256C27.892 21 27.6667 20.922 27.58 20.766C27.4933 20.61 27.45 20.3587 27.45 20.012C27.034 20.4107 26.5833 20.7227 26.098 20.948C25.6127 21.156 25.0927 21.26 24.538 21.26C23.8273 21.26 23.16 21.078 22.536 20.714C21.912 20.3327 21.366 19.83 20.898 19.206C20.43 18.582 20.0573 17.8627 19.78 17.048C19.52 16.2333 19.39 15.3753 19.39 14.474C19.39 13.59 19.52 12.7407 19.78 11.926C20.0573 11.1113 20.43 10.392 20.898 9.768C21.366 9.144 21.912 8.65 22.536 8.286C23.16 7.922 23.8273 7.74 24.538 7.74ZM23.212 14.474C23.212 15.046 23.2467 15.6527 23.316 16.294C23.3853 16.918 23.5067 17.49 23.68 18.01C23.8707 18.53 24.1133 18.9633 24.408 19.31C24.72 19.6393 25.11 19.804 25.578 19.804C25.9247 19.804 26.254 19.7087 26.566 19.518C26.8953 19.31 27.19 19.0327 27.45 18.686V10.288C27.19 9.95867 26.8953 9.69867 26.566 9.508C26.254 9.3 25.9247 9.196 25.578 9.196C25.11 9.196 24.72 9.36933 24.408 9.716C24.1133 10.0453 23.8707 10.47 23.68 10.99C23.5067 11.4927 23.3853 12.056 23.316 12.68C23.2467 13.304 23.212 13.902 23.212 14.474ZM37.8754 12.394C38.1354 12.2727 38.3954 12.134 38.6554 11.978C38.9154 11.822 39.1494 11.6747 39.3574 11.536C39.2881 10.704 39.1321 10.0107 38.8894 9.456C38.6467 8.884 38.3001 8.598 37.8494 8.598C37.5721 8.598 37.2947 8.77133 37.0174 9.118C36.7574 9.46467 36.4801 9.846 36.1854 10.262C35.8907 10.6607 35.5614 11.0333 35.1974 11.38C34.8334 11.7267 34.4174 11.9 33.9494 11.9C33.4467 11.9 33.0827 11.7527 32.8574 11.458C32.6494 11.146 32.5454 10.8253 32.5454 10.496C32.5454 10.0627 32.6754 9.67267 32.9354 9.326C33.1954 8.97933 33.5594 8.69333 34.0274 8.468C34.4954 8.22533 35.0501 8.04333 35.6914 7.922C36.3501 7.80067 37.0694 7.74 37.8494 7.74C39.3227 7.74 40.3801 8.00867 41.0214 8.546C41.6801 9.066 42.0961 9.81133 42.2694 10.782C42.3041 10.99 42.3387 11.3107 42.3734 11.744C42.4081 12.1773 42.4427 12.6627 42.4774 13.2C42.5121 13.72 42.5467 14.2747 42.5814 14.864C42.6161 15.436 42.6421 15.982 42.6594 16.502C42.6941 17.0047 42.7287 17.464 42.7634 17.88C42.7981 18.2787 42.8327 18.5647 42.8674 18.738C42.9021 18.9287 42.9627 19.0933 43.0494 19.232C43.1534 19.3533 43.2487 19.4747 43.3354 19.596C43.4221 19.7173 43.5001 19.8387 43.5694 19.96C43.6387 20.0813 43.6734 20.2287 43.6734 20.402C43.6734 20.5927 43.5954 20.74 43.4394 20.844C43.3007 20.948 43.1274 21 42.9194 21H39.6434C39.4874 21 39.3401 20.948 39.2014 20.844C39.0627 20.7227 38.9587 20.5407 38.8894 20.298C38.5081 20.5927 38.0574 20.8267 37.5374 21C37.0347 21.1907 36.5407 21.286 36.0554 21.286C35.5007 21.286 34.9981 21.182 34.5474 20.974C34.0967 20.7487 33.7154 20.4627 33.4034 20.116C33.0914 19.752 32.8487 19.3533 32.6754 18.92C32.5021 18.4693 32.4154 18.01 32.4154 17.542C32.4154 16.71 32.5801 16.0253 32.9094 15.488C33.2561 14.9333 33.6894 14.474 34.2094 14.11C34.7467 13.746 35.3361 13.434 35.9774 13.174C36.6361 12.914 37.2687 12.654 37.8754 12.394ZM38.8374 19.128C38.9067 18.3827 39.0021 17.5333 39.1234 16.58C39.2621 15.6093 39.3574 14.474 39.4094 13.174V12.732C39.2707 12.836 39.0974 12.9573 38.8894 13.096C38.6814 13.2347 38.4561 13.3907 38.2134 13.564C37.9881 13.72 37.7541 13.9107 37.5114 14.136C37.2861 14.344 37.0781 14.5953 36.8874 14.89C36.6967 15.1847 36.5407 15.5313 36.4194 15.93C36.2981 16.3287 36.2374 16.788 36.2374 17.308C36.2374 17.4987 36.2547 17.724 36.2894 17.984C36.3241 18.2267 36.3847 18.4693 36.4714 18.712C36.5754 18.9373 36.7141 19.1367 36.8874 19.31C37.0607 19.466 37.2947 19.544 37.5894 19.544C37.8321 19.544 38.0487 19.5093 38.2394 19.44C38.4474 19.3533 38.6467 19.2493 38.8374 19.128ZM47.9075 8C48.0462 8 48.1675 8.026 48.2715 8.078C48.3582 8.11267 48.4362 8.17333 48.5055 8.26C48.5922 8.32933 48.6355 8.442 48.6355 8.598C48.6355 8.754 48.6182 8.91 48.5835 9.066C48.5489 9.20467 48.5229 9.39533 48.5055 9.638C48.5055 9.86333 48.5315 10.158 48.5835 10.522C48.6355 10.886 48.7482 11.354 48.9215 11.926L51.2875 19.7L53.3935 11.926C53.5322 11.4233 53.5582 10.9987 53.4715 10.652C53.4022 10.3053 53.2982 10.002 53.1595 9.742C53.0209 9.482 52.8735 9.26533 52.7175 9.092C52.5789 8.91867 52.5095 8.754 52.5095 8.598C52.5095 8.494 52.5442 8.39 52.6135 8.286C52.6482 8.21667 52.7089 8.156 52.7955 8.104C52.8995 8.03467 53.0469 8 53.2375 8H55.8375C55.9762 8 56.0975 8.026 56.2015 8.078C56.2882 8.11267 56.3662 8.17333 56.4355 8.26C56.5222 8.32933 56.5655 8.442 56.5655 8.598C56.5655 8.754 56.4702 8.91867 56.2795 9.092C56.1062 9.248 55.8895 9.456 55.6295 9.716C55.3869 9.95867 55.1355 10.262 54.8755 10.626C54.6155 10.9727 54.4162 11.406 54.2775 11.926L52.1975 19.648C52.0935 20.0293 51.9722 20.35 51.8335 20.61C51.7122 20.87 51.5215 21 51.2615 21H48.6875C48.2889 21 47.9509 20.5667 47.6735 19.7L45.3075 11.926C45.1515 11.406 44.9609 10.9727 44.7355 10.626C44.5275 10.262 44.3195 9.95867 44.1115 9.716C43.9209 9.47333 43.7562 9.26533 43.6175 9.092C43.4789 8.91867 43.4095 8.754 43.4095 8.598C43.4095 8.494 43.4442 8.39 43.5135 8.286C43.5482 8.21667 43.6089 8.156 43.6955 8.104C43.7995 8.03467 43.9469 8 44.1375 8H47.9075ZM62.809 12.394C63.069 12.2727 63.329 12.134 63.589 11.978C63.849 11.822 64.083 11.6747 64.291 11.536C64.2217 10.704 64.0657 10.0107 63.823 9.456C63.5803 8.884 63.2337 8.598 62.783 8.598C62.5057 8.598 62.2283 8.77133 61.951 9.118C61.691 9.46467 61.4137 9.846 61.119 10.262C60.8243 10.6607 60.495 11.0333 60.131 11.38C59.767 11.7267 59.351 11.9 58.883 11.9C58.3803 11.9 58.0163 11.7527 57.791 11.458C57.583 11.146 57.479 10.8253 57.479 10.496C57.479 10.0627 57.609 9.67267 57.869 9.326C58.129 8.97933 58.493 8.69333 58.961 8.468C59.429 8.22533 59.9837 8.04333 60.625 7.922C61.2837 7.80067 62.003 7.74 62.783 7.74C64.2563 7.74 65.3137 8.00867 65.955 8.546C66.6137 9.066 67.0297 9.81133 67.203 10.782C67.2377 10.99 67.2723 11.3107 67.307 11.744C67.3417 12.1773 67.3763 12.6627 67.411 13.2C67.4457 13.72 67.4803 14.2747 67.515 14.864C67.5497 15.436 67.5757 15.982 67.593 16.502C67.6277 17.0047 67.6623 17.464 67.697 17.88C67.7317 18.2787 67.7663 18.5647 67.801 18.738C67.8357 18.9287 67.8963 19.0933 67.983 19.232C68.087 19.3533 68.1823 19.4747 68.269 19.596C68.3557 19.7173 68.4337 19.8387 68.503 19.96C68.5723 20.0813 68.607 20.2287 68.607 20.402C68.607 20.5927 68.529 20.74 68.373 20.844C68.2343 20.948 68.061 21 67.853 21H64.577C64.421 21 64.2737 20.948 64.135 20.844C63.9963 20.7227 63.8923 20.5407 63.823 20.298C63.4417 20.5927 62.991 20.8267 62.471 21C61.9683 21.1907 61.4743 21.286 60.989 21.286C60.4343 21.286 59.9317 21.182 59.481 20.974C59.0303 20.7487 58.649 20.4627 58.337 20.116C58.025 19.752 57.7823 19.3533 57.609 18.92C57.4357 18.4693 57.349 18.01 57.349 17.542C57.349 16.71 57.5137 16.0253 57.843 15.488C58.1897 14.9333 58.623 14.474 59.143 14.11C59.6803 13.746 60.2697 13.434 60.911 13.174C61.5697 12.914 62.2023 12.654 62.809 12.394ZM63.771 19.128C63.8403 18.3827 63.9357 17.5333 64.057 16.58C64.1957 15.6093 64.291 14.474 64.343 13.174V12.732C64.2043 12.836 64.031 12.9573 63.823 13.096C63.615 13.2347 63.3897 13.3907 63.147 13.564C62.9217 13.72 62.6877 13.9107 62.445 14.136C62.2197 14.344 62.0117 14.5953 61.821 14.89C61.6303 15.1847 61.4743 15.5313 61.353 15.93C61.2317 16.3287 61.171 16.788 61.171 17.308C61.171 17.4987 61.1883 17.724 61.223 17.984C61.2577 18.2267 61.3183 18.4693 61.405 18.712C61.509 18.9373 61.6477 19.1367 61.821 19.31C61.9943 19.466 62.2283 19.544 62.523 19.544C62.7657 19.544 62.9823 19.5093 63.173 19.44C63.381 19.3533 63.5803 19.2493 63.771 19.128ZM75.5461 7.74C76.5515 7.74 77.4355 7.90467 78.1981 8.234C78.9608 8.546 79.6021 9.00533 80.1221 9.612C80.6421 10.2013 81.0321 10.912 81.2921 11.744C81.5695 12.5587 81.7081 13.4773 81.7081 14.5C81.7081 15.5053 81.5695 16.424 81.2921 17.256C81.0321 18.088 80.6421 18.8073 80.1221 19.414C79.6021 20.0033 78.9608 20.4627 78.1981 20.792C77.4355 21.104 76.5515 21.26 75.5461 21.26C74.5408 21.26 73.6568 21.104 72.8941 20.792C72.1315 20.4627 71.4901 20.0033 70.9701 19.414C70.4501 18.8073 70.0515 18.088 69.7741 17.256C69.5141 16.424 69.3841 15.5053 69.3841 14.5C69.3841 13.4773 69.5141 12.5587 69.7741 11.744C70.0515 10.912 70.4501 10.2013 70.9701 9.612C71.4901 9.00533 72.1315 8.546 72.8941 8.234C73.6568 7.90467 74.5408 7.74 75.5461 7.74ZM73.2061 14.5C73.2061 15.5053 73.2755 16.3807 73.4141 17.126C73.5528 17.8713 73.7348 18.4867 73.9601 18.972C74.1855 19.4573 74.4368 19.8213 74.7141 20.064C74.9915 20.2893 75.2688 20.402 75.5461 20.402C75.8235 20.402 76.1008 20.2893 76.3781 20.064C76.6555 19.8213 76.9068 19.4573 77.1321 18.972C77.3575 18.4867 77.5395 17.8713 77.6781 17.126C77.8168 16.3807 77.8861 15.5053 77.8861 14.5C77.8861 13.4773 77.8168 12.602 77.6781 11.874C77.5395 11.1287 77.3575 10.5133 77.1321 10.028C76.9068 9.54267 76.6555 9.18733 76.3781 8.962C76.1008 8.71933 75.8235 8.598 75.5461 8.598C75.2688 8.598 74.9915 8.71933 74.7141 8.962C74.4368 9.18733 74.1855 9.54267 73.9601 10.028C73.7348 10.5133 73.5528 11.1287 73.4141 11.874C73.2755 12.602 73.2061 13.4773 73.2061 14.5ZM81.8867 8H83.7067V6.622C83.7067 5.738 83.854 4.96667 84.1487 4.308C84.4607 3.632 84.8767 3.06867 85.3967 2.618C85.9167 2.15 86.532 1.80333 87.2427 1.578C87.9534 1.35267 88.7074 1.24 89.5047 1.24C90.1114 1.24 90.692 1.292 91.2467 1.396C91.8014 1.48267 92.2867 1.63 92.7027 1.838C93.136 2.046 93.4827 2.306 93.7427 2.618C94.0027 2.93 94.1327 3.30267 94.1327 3.736C94.1327 4.06533 93.994 4.386 93.7167 4.698C93.4394 4.99267 93.0494 5.14 92.5467 5.14C92.2347 5.14 91.9747 5.07067 91.7667 4.932C91.576 4.776 91.4114 4.58533 91.2727 4.36C91.134 4.13467 91.0127 3.892 90.9087 3.632C90.822 3.35467 90.718 3.10333 90.5967 2.878C90.4754 2.65267 90.328 2.47067 90.1547 2.332C89.9987 2.176 89.782 2.098 89.5047 2.098C89.1927 2.098 88.898 2.16733 88.6207 2.306C88.3434 2.44467 88.092 2.68733 87.8667 3.034C87.6587 3.38067 87.4854 3.84867 87.3467 4.438C87.2254 5.01 87.1647 5.738 87.1647 6.622V8H88.9847C89.1407 8 89.2534 8.04333 89.3227 8.13C89.392 8.21667 89.4267 8.32067 89.4267 8.442C89.4267 8.546 89.392 8.64133 89.3227 8.728C89.2534 8.81467 89.1407 8.858 88.9847 8.858H87.1647V17.074C87.1647 17.6113 87.1994 18.062 87.2687 18.426C87.3554 18.7727 87.442 19.0673 87.5287 19.31C87.6154 19.5527 87.6934 19.7607 87.7627 19.934C87.8494 20.09 87.8927 20.246 87.8927 20.402C87.8927 20.506 87.8667 20.6013 87.8147 20.688C87.7627 20.7747 87.6847 20.8527 87.5807 20.922C87.494 20.974 87.3554 21 87.1647 21H83.7067C83.568 21 83.4467 20.974 83.3427 20.922C83.256 20.8873 83.1694 20.8267 83.0827 20.74C83.0134 20.6533 82.9787 20.5407 82.9787 20.402C82.9787 20.246 83.0134 20.09 83.0827 19.934C83.1694 19.7607 83.256 19.5527 83.3427 19.31C83.4294 19.0673 83.5074 18.7727 83.5767 18.426C83.6634 18.062 83.7067 17.6113 83.7067 17.074V8.858H81.8867C81.7307 8.858 81.618 8.81467 81.5487 8.728C81.4794 8.64133 81.4447 8.546 81.4447 8.442C81.4447 8.32067 81.4794 8.21667 81.5487 8.13C81.618 8.04333 81.7307 8 81.8867 8ZM89.9168 9.82L91.6588 8.39C91.7802 8.286 91.9275 8.19933 92.1008 8.13C92.2742 8.04333 92.4475 8 92.6208 8C92.8288 8 93.0022 8.078 93.1408 8.234C93.2968 8.39 93.3748 8.68467 93.3748 9.118V9.248C93.8255 8.79733 94.3108 8.43333 94.8308 8.156C95.3682 7.87867 95.9662 7.74 96.6248 7.74C97.0235 7.74 97.4482 7.80067 97.8988 7.922C98.3495 8.04333 98.7655 8.22533 99.1468 8.468C99.5282 8.69333 99.8402 8.97933 100.083 9.326C100.325 9.67267 100.447 10.0627 100.447 10.496C100.447 10.8253 100.308 11.146 100.031 11.458C99.7535 11.7527 99.3635 11.9 98.8608 11.9C98.3928 11.9 98.0288 11.7613 97.7688 11.484C97.5262 11.1893 97.3182 10.8687 97.1448 10.522C96.9715 10.1753 96.8068 9.86333 96.6508 9.586C96.5122 9.29133 96.2955 9.144 96.0008 9.144C95.6368 9.144 95.2208 9.29133 94.7528 9.586C94.2848 9.86333 93.8255 10.236 93.3748 10.704V17.074C93.3748 17.6113 93.4095 18.062 93.4788 18.426C93.5655 18.7727 93.6522 19.0673 93.7388 19.31C93.8255 19.5527 93.9035 19.7607 93.9728 19.934C94.0595 20.09 94.1028 20.246 94.1028 20.402C94.1028 20.506 94.0768 20.6013 94.0248 20.688C93.9728 20.7747 93.8948 20.8527 93.7908 20.922C93.7042 20.974 93.5655 21 93.3748 21H89.9168C89.4315 21 89.1888 20.8007 89.1888 20.402C89.1888 20.246 89.2235 20.09 89.2928 19.934C89.3795 19.7607 89.4662 19.5527 89.5528 19.31C89.6395 19.0673 89.7175 18.7727 89.7868 18.426C89.8735 18.062 89.9168 17.6113 89.9168 17.074V11.952C89.9168 11.6573 89.8648 11.4233 89.7608 11.25C89.6742 11.0593 89.5962 10.8947 89.5268 10.756C89.4748 10.6 89.4662 10.4613 89.5008 10.34C89.5355 10.2013 89.6742 10.028 89.9168 9.82ZM101.224 14.266C101.224 12.2207 101.735 10.626 102.758 9.482C103.798 8.32067 105.28 7.74 107.204 7.74C107.793 7.74 108.374 7.818 108.946 7.974C109.535 8.11267 110.055 8.34667 110.506 8.676C110.974 8.988 111.347 9.404 111.624 9.924C111.919 10.4267 112.066 11.042 112.066 11.77C112.066 12.4113 111.945 12.9313 111.702 13.33C111.459 13.7113 111.139 14.0147 110.74 14.24C110.341 14.448 109.882 14.5953 109.362 14.682C108.859 14.7513 108.331 14.786 107.776 14.786H105.046C105.046 15.7913 105.124 16.658 105.28 17.386C105.436 18.0967 105.627 18.6773 105.852 19.128C106.095 19.5613 106.355 19.882 106.632 20.09C106.909 20.298 107.161 20.402 107.386 20.402C107.663 20.402 107.923 20.3327 108.166 20.194C108.409 20.038 108.634 19.8473 108.842 19.622C109.05 19.3793 109.232 19.1107 109.388 18.816C109.561 18.504 109.7 18.2007 109.804 17.906C109.908 17.6113 110.055 17.4033 110.246 17.282C110.454 17.1607 110.662 17.1 110.87 17.1C111.182 17.1 111.451 17.2213 111.676 17.464C111.919 17.7067 111.979 18.0187 111.858 18.4C111.771 18.6773 111.607 18.9807 111.364 19.31C111.121 19.6393 110.809 19.9513 110.428 20.246C110.047 20.5233 109.596 20.766 109.076 20.974C108.573 21.1647 108.01 21.26 107.386 21.26C106.381 21.26 105.497 21.078 104.734 20.714C103.971 20.3327 103.33 19.8213 102.81 19.18C102.29 18.5387 101.891 17.802 101.614 16.97C101.354 16.1207 101.224 15.2193 101.224 14.266ZM105.072 13.928H106.736C107.048 13.928 107.299 13.8587 107.49 13.72C107.681 13.5813 107.828 13.408 107.932 13.2C108.053 12.9747 108.131 12.732 108.166 12.472C108.218 12.1947 108.244 11.926 108.244 11.666C108.244 11.302 108.227 10.938 108.192 10.574C108.157 10.21 108.097 9.88067 108.01 9.586C107.923 9.29133 107.811 9.05733 107.672 8.884C107.551 8.69333 107.395 8.598 107.204 8.598C107.013 8.598 106.797 8.71067 106.554 8.936C106.329 9.16133 106.112 9.49933 105.904 9.95C105.696 10.4007 105.514 10.9553 105.358 11.614C105.202 12.2727 105.107 13.044 105.072 13.928ZM114.439 16.788C114.751 16.788 115.011 16.8833 115.219 17.074C115.427 17.2473 115.6 17.464 115.739 17.724C115.878 17.984 116.008 18.2787 116.129 18.608C116.25 18.92 116.38 19.206 116.519 19.466C116.658 19.726 116.822 19.9513 117.013 20.142C117.221 20.3153 117.481 20.402 117.793 20.402C118.036 20.402 118.252 20.35 118.443 20.246C118.651 20.1247 118.824 19.9773 118.963 19.804C119.102 19.6307 119.206 19.4313 119.275 19.206C119.362 18.9807 119.405 18.7553 119.405 18.53C119.405 18.062 119.24 17.646 118.911 17.282C118.599 16.9007 118.2 16.5453 117.715 16.216C117.23 15.8693 116.71 15.5313 116.155 15.202C115.6 14.8727 115.08 14.526 114.595 14.162C114.11 13.798 113.702 13.3993 113.373 12.966C113.061 12.5153 112.905 12.004 112.905 11.432C112.905 10.756 113.078 10.184 113.425 9.716C113.789 9.248 114.231 8.86667 114.751 8.572C115.271 8.27733 115.826 8.06933 116.415 7.948C117.004 7.80933 117.542 7.74 118.027 7.74C118.79 7.74 119.474 7.818 120.081 7.974C120.688 8.13 121.208 8.34667 121.641 8.624C122.074 8.90133 122.404 9.23067 122.629 9.612C122.872 9.976 122.993 10.3747 122.993 10.808C122.993 11.1373 122.854 11.458 122.577 11.77C122.3 12.0647 121.91 12.212 121.407 12.212C121.095 12.212 120.835 12.1253 120.627 11.952C120.419 11.7613 120.246 11.536 120.107 11.276C119.968 11.016 119.838 10.73 119.717 10.418C119.596 10.0887 119.466 9.794 119.327 9.534C119.188 9.274 119.015 9.05733 118.807 8.884C118.616 8.69333 118.365 8.598 118.053 8.598C117.81 8.598 117.585 8.65867 117.377 8.78C117.186 8.884 117.022 9.02267 116.883 9.196C116.744 9.36933 116.632 9.56867 116.545 9.794C116.476 10.0193 116.441 10.2447 116.441 10.47C116.441 10.938 116.597 11.3627 116.909 11.744C117.238 12.1253 117.646 12.4893 118.131 12.836C118.634 13.1827 119.162 13.5293 119.717 13.876C120.289 14.2053 120.818 14.5607 121.303 14.942C121.806 15.3233 122.213 15.7393 122.525 16.19C122.854 16.6233 123.019 17.126 123.019 17.698C123.019 18.374 122.837 18.9373 122.473 19.388C122.109 19.8387 121.658 20.2027 121.121 20.48C120.601 20.7573 120.038 20.9567 119.431 21.078C118.842 21.1993 118.304 21.26 117.819 21.26C117.074 21.26 116.389 21.182 115.765 21.026C115.158 20.87 114.638 20.6533 114.205 20.376C113.772 20.0987 113.434 19.778 113.191 19.414C112.966 19.0327 112.853 18.6253 112.853 18.192C112.853 17.8627 112.992 17.5507 113.269 17.256C113.546 16.944 113.936 16.788 114.439 16.788ZM124.524 3.32L126.266 1.89C126.388 1.786 126.535 1.69933 126.708 1.63C126.882 1.54333 127.055 1.5 127.228 1.5C127.436 1.5 127.61 1.578 127.748 1.734C127.904 1.89 127.982 2.18467 127.982 2.618V9.664C128.433 9.10933 128.927 8.65 129.464 8.286C130.019 7.922 130.66 7.74 131.388 7.74C132.22 7.74 132.966 8.00867 133.624 8.546C134.283 9.066 134.699 9.81133 134.872 10.782C134.907 10.99 134.942 11.3107 134.976 11.744C135.011 12.1773 135.046 12.6627 135.08 13.2C135.115 13.72 135.15 14.2747 135.184 14.864C135.219 15.436 135.245 15.982 135.262 16.502C135.297 17.0047 135.332 17.464 135.366 17.88C135.401 18.2787 135.436 18.5647 135.47 18.738C135.505 18.9287 135.566 19.0933 135.652 19.232C135.756 19.3533 135.852 19.4747 135.938 19.596C136.025 19.7173 136.103 19.8387 136.172 19.96C136.242 20.0813 136.276 20.2287 136.276 20.402C136.276 20.5927 136.198 20.74 136.042 20.844C135.904 20.948 135.73 21 135.522 21H132.246C132.021 21 131.822 20.896 131.648 20.688C131.475 20.48 131.397 20.1333 131.414 19.648C131.449 18.868 131.544 17.958 131.7 16.918C131.856 15.878 131.96 14.63 132.012 13.174C132.03 12.5673 132.038 12.0213 132.038 11.536C132.056 11.0333 132.021 10.6087 131.934 10.262C131.865 9.91533 131.735 9.64667 131.544 9.456C131.354 9.248 131.076 9.144 130.712 9.144C130.296 9.144 129.837 9.33467 129.334 9.716C128.849 10.0973 128.398 10.5913 127.982 11.198V17.074C127.982 17.6113 128.017 18.062 128.086 18.426C128.173 18.7727 128.26 19.0673 128.346 19.31C128.433 19.5527 128.511 19.7607 128.58 19.934C128.667 20.09 128.71 20.246 128.71 20.402C128.71 20.506 128.684 20.6013 128.632 20.688C128.58 20.7747 128.502 20.8527 128.398 20.922C128.312 20.974 128.173 21 127.982 21H124.524C124.039 21 123.796 20.8007 123.796 20.402C123.796 20.246 123.831 20.09 123.9 19.934C123.987 19.7607 124.074 19.5527 124.16 19.31C124.247 19.0673 124.325 18.7727 124.394 18.426C124.481 18.062 124.524 17.6113 124.524 17.074V5.452C124.524 5.15733 124.472 4.92333 124.368 4.75C124.282 4.55933 124.204 4.39467 124.134 4.256C124.082 4.1 124.074 3.96133 124.108 3.84C124.143 3.70133 124.282 3.528 124.524 3.32Z" fill="white"/>
</svg>
