<svg width="22" height="26" viewBox="0 0 22 26" fill="none" xmlns="http://www.w3.org/2000/svg">
<path fill-rule="evenodd" clip-rule="evenodd" d="M15.2636 11.8002C16.9197 10.6221 18 8.68718 18 6.5C18 2.91015 15.0899 0 11.5 0C7.91015 0 5 2.91015 5 6.5C5 8.53946 5.93928 10.3595 7.40885 11.5513C3.10418 12.9831 0 17.0437 0 21.8293C0 24.1327 1.8673 26 4.17073 26H17.8293C20.1327 26 22 24.1327 22 21.8293C22 17.2967 19.2154 13.4146 15.2636 11.8002ZM16 6.5C16 8.98528 13.9853 11 11.5 11C9.01472 11 7 8.98528 7 6.5C7 4.01472 9.01472 2 11.5 2C13.9853 2 16 4.01472 16 6.5ZM2 21.8293C2 16.953 5.953 13 10.8293 13H11.1707C16.047 13 20 16.953 20 21.8293C20 23.0281 19.0281 24 17.8293 24H4.17073C2.97187 24 2 23.0281 2 21.8293Z" fill="#1B1B1A"/>
</svg>
