<svg width="26" height="26" viewBox="0 0 26 26" fill="none" xmlns="http://www.w3.org/2000/svg">
<path d="M2.17699 9.40491C1.86675 9.40455 1.56896 9.54376 1.3485 9.79221C1.12805 10.0407 1.00281 10.3782 1.00007 10.7313C0.998812 10.8537 1.01439 10.9756 1.04622 11.0925L4.02891 23.0629C4.16715 23.6221 4.46259 24.1142 4.87 24.4641C5.2774 24.8139 5.77432 25.0022 6.28467 25H19.7154C20.2267 25.0005 20.7244 24.8118 21.1333 24.4625C21.5423 24.1131 21.8404 23.6219 21.9827 23.0629L24.9654 11.0925L25 10.7313C24.9973 10.3782 24.872 10.0407 24.6516 9.79221C24.4311 9.54376 24.1333 9.40455 23.8231 9.40491H2.17699ZM13.33 19.9157C12.8505 19.9129 12.3825 19.7486 11.9849 19.4434C11.5874 19.1382 11.2782 18.7058 11.0963 18.2008C10.9145 17.6958 10.8681 17.1408 10.9632 16.6059C11.0582 16.0709 11.2903 15.58 11.6302 15.195C11.9701 14.8101 12.4026 14.5483 12.8731 14.4428C13.3436 14.3374 13.8309 14.3929 14.2737 14.6024C14.7165 14.8118 15.0949 15.1659 15.361 15.6199C15.6272 16.0739 15.7693 16.6074 15.7693 17.1532C15.7662 17.8872 15.5079 18.5899 15.0507 19.1076C14.5936 19.6253 13.9749 19.9158 13.33 19.9157Z" stroke="#1B1B1A" stroke-width="2" stroke-linejoin="round"/>
<path d="M7.46167 9.40492L13.0001 1L18.5386 9.40492" stroke="#1B1B1A" stroke-width="2" stroke-linejoin="round"/>
</svg>
